<?xml version="1.0" standalone="no"?>
<!DOCTYPE svg PUBLIC "-//W3C//DTD SVG 20010904//EN"
 "http://www.w3.org/TR/2001/REC-SVG-20010904/DTD/svg10.dtd">
<svg version="1.0" xmlns="http://www.w3.org/2000/svg"
 width="700.000000pt" height="700.000000pt" viewBox="0 0 700.000000 700.000000"
 preserveAspectRatio="xMidYMid meet">
<metadata>
Created by potrace 1.11, written by Peter Selinger 2001-2013
</metadata>
<g transform="translate(0.000000,700.000000) scale(0.100000,-0.100000)"
fill="#000000" stroke="none">
<path d="M1540 6990 c-237 -34 -424 -93 -610 -192 -429 -228 -748 -626 -869
-1084 -60 -225 -55 -59 -58 -2169 -1 -1153 2 -1960 8 -2005 49 -395 226 -756
506 -1032 282 -279 624 -445 1023 -497 90 -12 3905 -9 3965 3 220 43 353 85
509 161 249 121 460 293 627 511 183 238 296 508 343 819 21 133 21 3856 0
3990 -31 202 -79 357 -170 540 -168 340 -446 618 -784 783 -162 79 -278 119
-455 155 l-110 22 -1935 1 c-1064 1 -1960 -2 -1990 -6z"/>
</g>
</svg>
